HIERARCHY
ROOT Hips
{
	OFFSET 0.00 0.00 0.00
	CHANNELS 6 Xposition Yposition Zposition Xrotation Yrotation Zrotation
	JOINT Spine
	{
		OFFSET 0.00000 7.50895 0.00000
		CHANNELS 3 Xrotation Yrotation Zrotation
		JOINT Head
		{
			OFFSET 0.00000 13.86115 0.00000
			CHANNELS 3 Xrotation Yrotation Zrotation
			End Site
			{
				OFFSET 0.00000 4.52755 0.00000
			}
		}
		JOINT LeftShoulder
		{
			OFFSET 0.00000 8.20478 0.00000
			CHANNELS 3 Xrotation Yrotation Zrotation
			JOINT LeftArm
			{
				OFFSET 6.63596 0.00000 0.00000
				CHANNELS 3 Xrotation Yrotation Zrotation
				JOINT LeftForeArm
				{
					OFFSET 10.27422 0.00000 0.00000
					CHANNELS 3 Yrotation Zrotation Xrotation
					JOINT LeftHand
					{
						OFFSET 8.52215 0.00000 0.00000
						CHANNELS 3 Xrotation Yrotation Zrotation
						JOINT LeftHandThumb1
						{
							OFFSET 0.00000 0.00000 0.00000
							CHANNELS 3 Xrotation Zrotation Yrotation
							End Site
							{
								OFFSET 0.00000 0.00000 3.93700
							}
						}
						End Site
						{
							OFFSET 3.93700 0.00000 0.00000
						}
					}
				}
			}
		}
		JOINT RightShoulder
		{
			OFFSET 0.00000 8.20478 0.00000
			CHANNELS 3 Xrotation Yrotation Zrotation
			JOINT RightArm
			{
				OFFSET -6.63596 0.00000 0.00000
				CHANNELS 3 Xrotation Yrotation Zrotation
				JOINT RightForeArm
				{
					OFFSET -10.27422 0.00000 0.00000
					CHANNELS 3 Yrotation Zrotation Xrotation
					JOINT RightHand
					{
						OFFSET -8.52215 0.00000 0.00000
						CHANNELS 3 Xrotation Yrotation Zrotation
						JOINT RightHandThumb1
						{
							OFFSET 0.00000 0.00000 0.00000
							CHANNELS 3 Xrotation Zrotation Yrotation
							End Site
							{
								OFFSET 0.00000 0.00000 3.93700
							}
						}
						End Site
						{
							OFFSET -3.93700 0.00000 0.00000
						}
					}
				}
			}
		}
	}
	JOINT LeftUpLeg
	{
		OFFSET 3.00056 0.00000 0.00000
		CHANNELS 3 Xrotation Yrotation Zrotation
		JOINT LeftLeg
		{
			OFFSET 0.00000 -16.49085 0.00000
			CHANNELS 3 Xrotation Yrotation Zrotation
			JOINT LeftFoot
			{
				OFFSET 0.00000 -14.55658 0.00000
				CHANNELS 3 Xrotation Yrotation Zrotation
				JOINT LeftToeBase
				{
					OFFSET 0.00000 -1.25038 4.66650
					CHANNELS 3 Xrotation Yrotation Zrotation
					End Site
					{
						OFFSET 0.00000 0.00000 2.95275
					}
				}
			}
		}
	}
	JOINT RightUpLeg
	{
		OFFSET -3.00056 0.00000 0.00000
		CHANNELS 3 Xrotation Yrotation Zrotation
		JOINT RightLeg
		{
			OFFSET 0.00000 -16.49085 0.00000
			CHANNELS 3 Xrotation Yrotation Zrotation
			JOINT RightFoot
			{
				OFFSET 0.00000 -14.55658 0.00000
				CHANNELS 3 Xrotation Yrotation Zrotation
				JOINT RightToeBase
				{
					OFFSET 0.00000 -1.25038 4.66650
					CHANNELS 3 Xrotation Yrotation Zrotation
					End Site
					{
						OFFSET 0.00000 0.00000 2.95275
					}
				}
			}
		}
	}
}
MOTION
Frames: 21
Frame Time: 0.008333
 -4.9836 33.8996 -0.0145 13.0400 8.4660 19.3038 -6.9285 2.9597 -3.6934 -24.4663 -6.4937 -4.6043 22.8463 8.7499 7.4867 -21.6741 -13.7930 -73.0535 -53.4159 -0.0000 17.3805 -3.1568 25.4654 7.3096 33.1476 -0.0000 26.2537 -13.4102 -6.8518 -28.8370 13.0572 11.8440 77.8158 43.7645 0.0000 23.8511 0.0380 -2.1765 1.0015 32.8623 0.0000 -24.3270 -22.3196 9.3755 8.1566 9.4972 -0.0000 -0.0000 18.8041 1.8929 -30.4146 -0.4084 -0.0000 0.0000 -22.1778 -6.5225 -15.9112 15.9531 0.0000 -0.0000 -13.9459 -2.6584 -1.2173 -1.5648 0.0000 0.0000
 -4.9700 33.8635 0.0010 13.1912 7.7553 18.7690 -6.9459 3.1861 -3.1212 -24.6078 -6.2983 -4.4360 22.9744 8.9477 7.5221 -21.2009 -13.6649 -73.7335 -52.9797 -0.0000 17.1044 -3.3295 25.3497 7.7380 33.1476 -0.0000 26.2537 -13.3869 -6.9188 -28.7465 13.1166 12.2073 77.8271 43.6534 0.0000 23.6204 0.0329 -2.3644 0.7970 32.8623 0.0000 -24.3270 -21.8755 9.3426 7.1336 9.4372 0.0000 -0.0000 17.9788 1.8295 -31.2269 0.4511 0.0000 -0.0000 -22.0568 -6.1473 -15.1888 15.9027 0.0000 -0.0000 -13.9409 -2.8238 -0.8074 -1.8001 0.0000 -0.0000
 -4.9574 33.8238 0.0140 13.3013 7.1009 18.2207 -6.9270 3.4380 -2.5272 -24.7339 -6.1253 -4.2824 23.1500 9.1404 7.5314 -20.8919 -13.7166 -74.4227 -52.4529 -0.0000 16.8287 -3.5685 25.3737 8.2801 33.1476 -0.0000 26.2537 -13.3708 -7.0226 -28.7480 13.1258 12.3062 77.9658 43.5009 0.0000 23.8408 0.0347 -2.2077 0.9011 32.8623 0.0000 -24.3270 -21.4767 9.2068 6.1734 9.3490 0.0000 -0.0000 17.1550 2.2098 -32.1924 0.0689 0.0000 -0.0000 -21.9360 -5.8603 -14.4780 15.9145 0.0000 -0.0000 -14.0658 -2.8700 -0.6064 -1.7641 -0.0000 0.0000
 -4.9504 33.7809 0.0183 13.4014 6.5290 17.6526 -6.9292 3.5917 -1.9187 -24.8428 -5.9176 -4.1841 23.1547 9.2483 7.5400 -20.3111 -13.9894 -74.9255 -51.9348 -0.0000 16.4222 -3.9010 25.3908 9.0360 33.1476 -0.0000 26.2537 -13.2973 -7.0196 -28.7713 13.1663 12.4604 78.1453 43.3978 0.0000 23.8940 0.0376 -2.2401 0.9624 32.8623 0.0000 -24.3270 -21.1946 8.8982 5.2980 9.3853 -0.0000 0.0000 16.1677 2.7309 -33.2422 0.1656 0.0000 -0.0000 -21.8469 -5.6774 -13.7653 15.9257 0.0000 0.0000 -14.1900 -2.8941 -0.6220 -1.8029 -0.0000 -0.0000
 -4.9471 33.7369 0.0328 13.4871 5.8728 17.0694 -6.9226 3.9227 -1.2588 -24.8867 -5.8294 -4.1861 23.2827 9.3179 7.3499 -19.7524 -14.7471 -75.0536 -51.4269 -0.0000 15.7424 -4.1695 25.4890 9.6148 33.1476 -0.0000 26.2537 -13.2834 -7.0284 -28.8664 13.2913 12.5205 78.3657 43.2640 0.0000 24.1126 0.0428 -2.2047 1.1124 32.8623 0.0000 -24.3270 -20.8944 8.7323 4.5618 9.4143 -0.0000 -0.0000 15.0764 3.1179 -34.3513 0.0932 0.0000 -0.0000 -21.7473 -5.6642 -13.0433 15.8969 0.0000 0.0000 -14.3050 -2.6710 -0.4283 -1.8512 0.0000 -0.0000
 -4.9355 33.6939 0.0546 13.5436 5.1613 16.5643 -6.9021 4.2833 -0.6854 -24.8473 -5.6466 -4.1624 23.3682 9.3818 7.2776 -19.3240 -15.0698 -75.4744 -50.7498 -0.0000 15.4482 -4.2066 25.4172 9.7240 33.1476 -0.0000 26.2537 -13.2692 -6.9725 -28.9213 13.4557 12.5237 78.5896 43.1587 0.0000 24.2434 0.0464 -2.2593 1.1765 32.8623 0.0000 -24.3270 -20.5716 8.7043 3.8413 9.4751 0.0000 -0.0000 13.7525 3.3680 -35.2409 0.3773 -0.0000 -0.0000 -21.6022 -5.5606 -12.3938 15.8756 0.0000 0.0000 -14.4767 -2.4469 -0.1615 -1.5174 -0.0000 -0.0000
 -4.9281 33.6526 0.0683 13.6083 4.5138 16.0490 -6.9161 4.6541 -0.1339 -24.7666 -5.4874 -4.0979 23.3576 9.3384 7.4094 -19.1052 -14.7875 -76.3017 -49.7654 -0.0000 15.6213 -4.0896 25.1482 9.5504 33.1476 -0.0000 26.2537 -13.2306 -6.9510 -28.9747 13.6121 12.5796 78.8452 42.9849 0.0000 23.5874 0.0319 -2.2839 0.8002 32.8623 0.0000 -24.3270 -20.3361 8.6286 3.1998 9.5324 0.0000 -0.0000 12.5124 3.3999 -36.0386 0.1298 -0.0000 -0.0000 -21.5262 -5.5938 -11.7627 15.8759 0.0000 -0.0000 -14.6263 -2.1305 0.1572 -1.5517 0.0000 0.0000
 -4.9261 33.6097 0.0855 13.7016 3.8350 15.4945 -6.9791 5.0052 0.4844 -24.6599 -5.2317 -4.0649 23.5538 9.4073 7.2681 -18.8826 -15.0310 -76.6924 -48.9290 -0.0000 15.4488 -3.9140 25.0696 9.1726 33.1476 -0.0000 26.2537 -13.2026 -6.9330 -29.0445 13.6919 12.4942 79.0457 42.7861 0.0000 24.1938 0.0476 -2.0266 1.3459 32.8623 0.0000 -24.3270 -20.2281 8.7513 2.7111 9.7532 -0.0000 -0.0000 11.1888 3.0051 -36.2942 -0.2495 -0.0000 0.0000 -21.4411 -5.5861 -11.0665 15.8512 -0.0000 -0.0000 -14.7796 -1.7820 0.5234 -1.7339 -0.0000 0.0000
 -4.9188 33.5715 0.1066 13.8066 3.1194 15.0216 -7.0780 5.4839 1.0144 -24.4949 -5.0001 -4.0242 23.6418 9.3936 7.1233 -18.5281 -15.4235 -76.9769 -48.0533 -0.0000 15.1929 -3.8883 24.9597 9.1500 33.1476 -0.0000 26.2537 -13.1855 -6.9662 -29.1238 13.8046 12.4897 79.3072 42.5526 0.0000 24.1064 0.0454 -2.0022 1.2994 32.8623 0.0000 -24.3270 -20.0945 8.9412 2.2005 9.8768 0.0000 0.0000 10.1632 2.6818 -36.8570 -0.9344 0.0000 -0.0000 -21.3550 -5.4397 -10.4380 15.8271 0.0000 -0.0000 -14.8931 -1.4447 1.0007 -1.8760 -0.0000 0.0000
 -4.9123 33.5365 0.1271 13.9194 2.4939 14.5590 -7.2271 5.8599 1.5327 -24.3141 -4.8004 -3.9574 23.7379 9.4203 6.9249 -18.1950 -15.8007 -77.2087 -47.1180 -0.0000 14.9371 -3.8839 24.8108 9.1903 33.1476 -0.0000 26.2537 -13.1769 -7.0254 -29.1949 13.8950 12.5138 79.5348 42.3043 0.0000 24.2439 0.0455 -2.0291 1.2852 32.8623 0.0000 -24.3270 -20.0420 9.0572 1.7409 10.0486 0.0000 0.0000 9.2027 2.1412 -37.3635 -0.6669 0.0000 -0.0000 -21.2742 -5.3631 -9.8434 15.7577 -0.0000 -0.0000 -15.0708 -1.2161 1.3872 -2.1843 0.0000 0.0000
 -4.9009 33.5070 0.1415 14.0827 1.8508 14.1380 -7.4409 6.2633 2.0174 -24.1094 -4.6052 -3.8998 24.0474 9.5121 6.6709 -18.1256 -16.2133 -77.4393 -46.1000 -0.0000 14.5603 -3.8646 24.5472 9.2356 33.1476 -0.0000 26.2537 -13.1478 -7.0193 -29.2463 14.0347 12.4987 79.7097 42.0884 0.0000 24.3537 0.0494 -1.9229 1.4733 32.8623 0.0000 -24.3270 -20.0530 9.2070 1.2915 10.1957 0.0000 0.0000 8.3942 1.6580 -37.5440 -1.1074 -0.0000 0.0000 -21.2779 -5.1998 -9.3081 15.7247 0.0000 0.0000 -15.1087 -1.0032 2.0701 -2.6296 0.0000 -0.0000
 -4.8879 33.4788 0.1611 14.2093 1.2866 13.7407 -7.6474 6.6249 2.4858 -23.9265 -4.4531 -3.8951 24.1821 9.5865 6.4522 -17.9294 -16.7620 -77.6684 -44.9253 -0.0000 14.3649 -3.9208 24.2903 9.4592 33.1476 -0.0000 26.2537 -13.1233 -7.0836 -29.3593 14.1393 12.5357 79.9202 41.8371 0.0000 24.2867 0.0478 -1.8445 1.4847 32.8623 0.0000 -24.3270 -20.0467 9.2852 0.8469 10.2968 0.0000 0.0000 7.5957 1.1443 -37.0989 -1.5678 0.0000 -0.0000 -21.2382 -5.0569 -8.8094 15.6748 -0.0000 -0.0000 -15.2316 -0.8494 2.3332 -2.6861 0.0000 0.0000
 -4.8728 33.4551 0.1883 14.2863 0.7220 13.4022 -7.8112 6.9961 2.8811 -23.7435 -4.2352 -3.8039 24.3051 9.6281 6.2360 -17.6725 -17.3096 -77.8344 -43.8752 -0.0000 13.9336 -4.0451 24.4964 9.6788 33.1476 -0.0000 26.2537 -13.1185 -7.1328 -29.4370 14.2722 12.5404 80.1410 41.5709 0.0000 24.2103 0.0389 -1.9015 1.1736 32.8623 0.0000 -24.3270 -19.9773 9.3695 0.3950 10.3758 -0.0000 -0.0000 6.8606 0.8676 -37.2004 -1.8969 -0.0000 -0.0000 -21.1357 -4.9109 -8.3571 15.6146 -0.0000 -0.0000 -15.3357 -0.7785 2.5330 -2.4667 -0.0000 -0.0000
 -4.8552 33.4332 0.2121 14.3589 0.2130 13.0914 -7.9814 7.2796 3.2585 -23.5526 -4.0040 -3.7315 24.6309 9.8114 5.9316 -17.7024 -17.9296 -77.9946 -42.6740 -0.0000 13.4381 -4.1307 24.3461 9.9365 33.1476 -0.0000 26.2537 -13.0903 -7.0802 -29.5189 14.4410 12.3859 80.3198 41.3895 0.0000 24.6280 0.0487 -1.8374 1.5171 32.8623 0.0000 -24.3270 -19.9229 9.3998 -0.0480 10.4081 -0.0000 -0.0000 6.0218 0.8315 -37.2497 -2.0676 0.0000 0.0000 -21.0544 -4.7696 -7.9471 15.5773 0.0000 -0.0000 -15.4862 -0.8235 2.7411 -2.6295 -0.0000 -0.0000
 -4.8330 33.4130 0.2487 14.3703 -0.3139 12.8502 -8.1093 7.6474 3.5616 -23.3644 -3.7939 -3.6845 24.6942 9.8796 5.7290 -17.4171 -18.4834 -78.1053 -41.5216 -0.0000 12.6350 -4.1532 24.1097 10.0798 33.1476 -0.0000 26.2537 -13.0304 -7.1737 -29.6584 14.5180 12.5533 80.4886 41.0555 0.0000 24.3573 0.0425 -1.7777 1.3703 32.8623 0.0000 -24.3270 -19.7404 9.4568 -0.5164 10.3542 0.0000 -0.0000 5.1961 0.9370 -37.1738 -2.7275 -0.0000 0.0000 -20.9045 -4.6551 -7.6190 15.5336 -0.0000 -0.0000 -15.6684 -0.8414 2.9437 -3.0340 -0.0000 -0.0000
 -4.8163 33.3937 0.2796 14.3524 -0.8178 12.6055 -8.1706 8.0103 3.8569 -23.2019 -3.6593 -3.6067 24.7822 9.9169 5.5109 -17.1709 -19.2254 -78.1705 -40.3962 -0.0000 12.0637 -4.3026 24.4057 10.3196 33.1476 -0.0000 26.2537 -12.9961 -7.2223 -29.7806 14.6132 12.5256 80.6511 40.7583 0.0000 24.5199 0.0421 -1.6536 1.4596 32.8623 0.0000 -24.3270 -19.5532 9.4682 -0.9150 10.2825 0.0000 -0.0000 4.4659 1.2915 -37.0691 -3.3330 -0.0000 -0.0000 -20.7434 -4.5205 -7.2711 15.5083 -0.0000 0.0000 -15.8280 -0.8902 3.0312 -3.1981 -0.0000 0.0000
 -4.8019 33.3737 0.3139 14.3115 -1.3512 12.3818 -8.2177 8.4256 4.0948 -23.0090 -3.5817 -3.4411 24.8677 9.9491 5.3731 -16.9112 -19.8565 -78.2421 -39.2840 -0.0000 11.2029 -4.3270 24.2470 10.4395 33.1476 -0.0000 26.2537 -12.9422 -7.2969 -29.8587 14.6890 12.5395 80.7729 40.4216 0.0000 24.5266 0.0473 -1.6501 1.6437 32.8623 0.0000 -24.3270 -19.3390 9.5471 -1.2643 10.1880 0.0000 -0.0000 3.8081 1.7911 -36.9148 -3.9386 -0.0000 -0.0000 -20.5528 -4.3452 -6.9239 15.4994 0.0000 -0.0000 -15.9938 -0.9101 3.0208 -3.0945 -0.0000 0.0000
 -4.7857 33.3536 0.3488 14.2599 -1.8493 12.1731 -8.2698 8.7135 4.3418 -22.7960 -3.4418 -3.3507 24.9259 9.9887 5.2300 -16.5598 -20.3981 -78.3087 -38.2585 -0.0000 10.2089 -4.2655 24.1348 10.3378 33.1476 -0.0000 26.2537 -12.9119 -7.2311 -30.0016 14.7703 12.5518 80.9615 40.0305 0.0000 24.2577 0.0482 -1.8982 1.4559 32.8623 0.0000 -24.3270 -19.1231 9.5868 -1.5934 10.1118 0.0000 -0.0000 3.3736 2.4599 -36.6370 -4.7038 0.0000 0.0000 -20.3763 -4.2378 -6.6072 15.5067 0.0000 -0.0000 -16.1269 -0.8762 2.9447 -3.5263 0.0000 -0.0000
 -4.7788 33.3320 0.3802 14.2512 -2.3910 11.9664 -8.3585 9.0791 4.5242 -22.5444 -3.3831 -3.0918 25.0530 10.0319 5.1726 -16.2482 -20.9862 -78.3625 -37.3000 -0.0000 9.3609 -4.2366 24.0889 10.2870 33.1476 -0.0000 26.2537 -12.8618 -7.2216 -30.0329 14.8533 12.5358 81.0499 39.6531 0.0000 24.2756 0.0471 -1.7758 1.5209 32.8623 0.0000 -24.3270 -18.9650 9.6634 -1.8251 10.0793 -0.0000 -0.0000 2.8773 3.2894 -36.4314 -4.1644 -0.0000 0.0000 -20.2470 -4.0779 -6.2474 15.5224 -0.0000 0.0000 -16.2464 -0.7658 2.8262 -3.4549 0.0000 -0.0000
 -4.7515 33.3157 0.4323 14.0841 -2.8516 11.8205 -8.3029 9.2588 4.7189 -22.2717 -3.1919 -2.9957 25.1467 10.0894 5.0177 -15.8590 -21.5298 -78.4255 -36.3714 -0.0000 8.5744 -4.1093 23.9595 10.0328 33.1476 -0.0000 26.2537 -12.8760 -7.1335 -30.1312 14.9622 12.7196 81.0418 39.2531 0.0000 23.8842 0.0466 -1.8470 1.4443 32.8623 0.0000 -24.3270 -18.6037 9.5191 -2.1599 9.9942 0.0000 0.0000 2.4782 4.2448 -36.0651 -3.7784 0.0000 -0.0000 -19.9320 -4.1331 -6.0655 15.4757 -0.0000 0.0000 -16.4072 -0.4410 2.9289 -3.3484 0.0000 -0.0000
 -4.7345 33.2993 0.4757 14.0061 -3.3594 11.6910 -8.3329 9.5094 4.8235 -21.9779 -3.0524 -2.7516 25.3689 10.2315 4.9259 -15.6098 -22.1837 -78.4658 -35.4709 -0.0000 7.8732 -3.9824 23.7960 9.7895 33.1476 -0.0000 26.2537 -12.8718 -7.0823 -30.1360 15.0368 12.9105 81.0041 38.8220 0.0000 23.5710 0.0430 -2.0012 1.2309 32.8623 0.0000 -24.3270 -18.3618 9.4987 -2.4051 9.9873 -0.0000 -0.0000 1.9892 5.2183 -35.7377 -3.6314 0.0000 -0.0000 -19.7252 -4.0663 -5.8513 15.4531 0.0000 -0.0000 -16.4998 -0.1073 2.9886 -3.3972 -0.0000 0.0000
